<?xml version="1.0" encoding="UTF-8" standalone="no"?>
<!DOCTYPE svg PUBLIC "-//W3C//DTD SVG 1.1//EN" "http://www.w3.org/Graphics/SVG/1.1/DTD/svg11.dtd">
<svg width="24.00" height="24.00" viewBox="0.00 0.00 400.00 400.00" xmlns="http://www.w3.org/2000/svg" xmlns:xlink="http://www.w3.org/1999/xlink">
<g stroke-linecap="round" id="Layer_1">
<path d="M201.01,17.96 C207.85,17.97 224.94,19.55 232.89,20.90 C241.85,22.44 255.06,25.98 263.59,29.11 C271.16,31.91 286.74,39.08 292.67,42.48 C298.59,45.90 312.60,55.79 318.81,60.93 C325.79,66.74 335.46,76.40 341.28,83.37 C346.43,89.57 356.34,103.55 359.77,109.46 C363.18,115.38 370.36,130.94 373.16,138.49 C376.30,147.01 379.84,160.19 381.39,169.14 C382.74,177.08 384.32,194.13 384.33,200.96 C384.32,207.79 382.74,224.84 381.39,232.78 C379.84,241.73 376.30,254.91 373.16,263.43 C370.36,270.98 363.18,286.54 359.77,292.46 C356.34,298.36 346.43,312.35 341.28,318.55 C335.46,325.52 325.79,335.18 318.81,340.99 C312.60,346.13 298.59,356.02 292.67,359.44 C286.74,362.84 271.16,370.01 263.59,372.81 C255.06,375.94 241.85,379.48 232.89,381.02 C224.94,382.37 207.85,383.95 201.01,383.95 C194.17,383.95 177.09,382.37 169.14,381.02 C160.17,379.48 146.96,375.94 138.43,372.81 C130.87,370.01 115.28,362.84 109.35,359.44 C103.44,356.02 89.43,346.13 83.22,340.99 C76.23,335.18 66.56,325.52 60.74,318.55 C55.59,312.35 45.68,298.36 42.26,292.46 C38.84,286.54 31.67,270.98 28.86,263.43 C25.72,254.91 22.18,241.73 20.64,232.78 C19.28,224.84 17.70,207.79 17.70,200.96 C17.70,194.13 19.28,177.08 20.64,169.14 C22.18,160.19 25.72,147.01 28.86,138.49 C31.67,130.94 38.84,115.38 42.26,109.46 C45.68,103.55 55.59,89.57 60.74,83.37 C66.56,76.40 76.23,66.74 83.22,60.93 C89.43,55.79 103.44,45.90 109.35,42.48 C115.28,39.08 130.87,31.91 138.43,29.11 C146.96,25.98 160.17,22.44 169.14,20.90 C177.09,19.55 194.17,17.97 201.01,17.96 Z" fill="none" stroke="rgb(255, 255, 255)" stroke-width="25.00" stroke-opacity="1.00" stroke-linejoin="round"/>
</g>
</svg>
